# xmcd
#
# Track frame offsets:
#	150
#	17741
#	30887
#	47064
#	62220
#	80312
#	95304
#	114145
#	132040
#	150346
#	166485
#
# Disc length: 2422 seconds
#
# Revision: 0
# Processed by: cddbd v1.5.2PL0 Copyright (c) Steve Scherf et al.
# Submitted via: EasyCDDAExtractor 12.0.5.1
#
DISCID=7209740b
DTITLE=Taylor Swift
DYEAR=2006
DGENRE=Country
TTITLE0=Tim McGraw
TTITLE1=Picture To Burn
TTITLE2=Teardrops On My Guitar
TTITLE3=A Place In This World
TTITLE4=Cold As You
TTITLE5=The Outside
TTITLE6=Tied Together With A Smile
TTITLE7=Stay Beautiful
TTITLE8=Should've Said No
TTITLE9=Mary's Song (Oh My My My)
TTITLE10=Our Song
EXTD=
EXTT0=
EXTT1=
EXTT2=
EXTT3=
EXTT4=
EXTT5=
EXTT6=
EXTT7=
EXTT8=
EXTT9=
EXTT10=
PLAYORDER=
